<?xml version="1.0" encoding="UTF-8"?>
<!DOCTYPE svg PUBLIC "-//W3C//DTD SVG 1.1//EN" "http://www.w3.org/Graphics/SVG/1.1/DTD/svg11.dtd">
<!-- Creator: CorelDRAW 2021 (64-Bit) -->
<svg xmlns="http://www.w3.org/2000/svg" xml:space="preserve" width="74px" height="58px" version="1.1" style="shape-rendering:geometricPrecision; text-rendering:geometricPrecision; image-rendering:optimizeQuality; fill-rule:evenodd; clip-rule:evenodd"
viewBox="0 0 74 58"
 xmlns:xlink="http://www.w3.org/1999/xlink"
 xmlns:xodm="http://www.corel.com/coreldraw/odm/2003">
 <defs>
  <style type="text/css">
   <![CDATA[
    .fil0 {fill:#5865F2;fill-rule:nonzero}
   ]]>
  </style>
 </defs>
 <g id="Layer_x0020_1">
  <metadata id="CorelCorpID_0Corel-Layer"/>
  <path class="fil0" d="M61.42 6.8c-4.62,-2.11 -9.52,-3.62 -14.52,-4.46 -0.68,1.22 -1.3,2.49 -1.85,3.78 -2.66,-0.4 -5.37,-0.61 -8.06,-0.61 -2.69,0 -5.4,0.21 -8.06,0.6 -0.54,-1.28 -1.17,-2.55 -1.86,-3.77 -5,0.85 -9.9,2.36 -14.52,4.47 -9.18,13.6 -11.67,26.85 -10.43,39.91l0 0c5.37,3.98 11.41,7 17.8,8.94 1.44,-1.94 2.73,-4 3.82,-6.15 -2.08,-0.77 -4.1,-1.74 -6.01,-2.86 0.5,-0.37 1,-0.75 1.47,-1.11 5.57,2.61 11.65,3.97 17.8,3.97 6.15,0 12.23,-1.36 17.8,-3.97 0.48,0.39 0.97,0.77 1.47,1.1 -1.91,1.13 -3.94,2.1 -6.02,2.88 1.09,2.15 2.37,4.21 3.81,6.14 6.41,-1.93 12.44,-4.96 17.82,-8.93l0 0c1.46,-15.15 -2.5,-28.28 -10.46,-39.93zm-36.11 31.89c-3.47,0 -6.33,-3.15 -6.33,-7.02 0,-3.88 2.76,-7.05 6.32,-7.05 3.56,0 6.4,3.17 6.34,7.05 -0.06,3.87 -2.79,7.02 -6.33,7.02zm23.38 0c-3.48,0 -6.33,-3.15 -6.33,-7.02 0,-3.88 2.76,-7.05 6.33,-7.05 3.56,0 6.38,3.17 6.32,7.05 -0.06,3.87 -2.79,7.02 -6.32,7.02z"/>
 </g>
</svg>
