<?xml version="1.0" encoding="UTF-8"?>
<!DOCTYPE svg PUBLIC "-//W3C//DTD SVG 1.1//EN" "http://www.w3.org/Graphics/SVG/1.1/DTD/svg11.dtd">
<!-- Creator: CorelDRAW 2021 (64-Bit) -->
<svg xmlns="http://www.w3.org/2000/svg" xml:space="preserve" width="2480px" height="3508px" version="1.1" style="shape-rendering:geometricPrecision; text-rendering:geometricPrecision; image-rendering:optimizeQuality; fill-rule:evenodd; clip-rule:evenodd"
viewBox="0 0 2480 3507.43"
 xmlns:xlink="http://www.w3.org/1999/xlink"
 xmlns:xodm="http://www.corel.com/coreldraw/odm/2003">
 <defs>
  <style type="text/css">
   <![CDATA[
    .fil0 {fill:#5865F2;fill-rule:nonzero}
   ]]>
  </style>
 </defs>
 <g id="Layer_x0020_1">
  <metadata id="CorelCorpID_0Corel-Layer"/>
  <path class="fil0" d="M-627.82 1202.78c-4.61,-2.12 -9.51,-3.62 -14.51,-4.47 -0.68,1.22 -1.3,2.5 -1.85,3.78 -2.66,-0.4 -5.37,-0.6 -8.06,-0.6 -2.69,0 -5.4,0.2 -8.06,0.6 -0.54,-1.28 -1.17,-2.55 -1.85,-3.78 -5.01,0.86 -9.9,2.37 -14.52,4.48 -9.19,13.59 -11.68,26.84 -10.44,39.9l0 0c5.38,3.97 11.41,7 17.81,8.94 1.43,-1.94 2.72,-4 3.81,-6.15 -2.08,-0.77 -4.1,-1.74 -6.01,-2.87 0.51,-0.36 1,-0.74 1.47,-1.1 5.57,2.61 11.65,3.97 17.8,3.97 6.15,0 12.23,-1.36 17.79,-3.97 0.48,0.39 0.98,0.76 1.47,1.1 -1.91,1.13 -3.93,2.1 -6.01,2.88 1.09,2.14 2.37,4.2 3.81,6.14 6.4,-1.93 12.44,-4.96 17.81,-8.94l0 0.01c1.46,-15.15 -2.49,-28.28 -10.46,-39.92zm-36.1 31.88c-3.47,0 -6.33,-3.15 -6.33,-7.02 0,-3.88 2.76,-7.05 6.32,-7.05 3.56,0 6.4,3.17 6.34,7.05 -0.06,3.87 -2.79,7.02 -6.33,7.02zm23.37 0c-3.47,0 -6.33,-3.15 -6.33,-7.02 0,-3.88 2.77,-7.05 6.33,-7.05 3.57,0 6.39,3.17 6.33,7.05 -0.06,3.87 -2.79,7.02 -6.33,7.02z"/>
 </g>
</svg>
