<?xml version="1.0" encoding="UTF-8"?>
<!DOCTYPE svg PUBLIC "-//W3C//DTD SVG 1.1//EN" "http://www.w3.org/Graphics/SVG/1.1/DTD/svg11.dtd">
<!-- Creator: CorelDRAW 2021 (64-Bit) -->
<svg xmlns="http://www.w3.org/2000/svg" xml:space="preserve" width="2480px" height="3508px" version="1.1" style="shape-rendering:geometricPrecision; text-rendering:geometricPrecision; image-rendering:optimizeQuality; fill-rule:evenodd; clip-rule:evenodd"
viewBox="0 0 2480 3507.43"
 xmlns:xlink="http://www.w3.org/1999/xlink"
 xmlns:xodm="http://www.corel.com/coreldraw/odm/2003">
 <defs>
  <style type="text/css">
   <![CDATA[
    .fil0 {fill:#1D9BF0;fill-rule:nonzero}
   ]]>
  </style>
 </defs>
 <g id="Layer_x0020_1">
  <metadata id="CorelCorpID_0Corel-Layer"/>
  <path class="fil0" d="M2381.94 484.76c0.05,0.62 0.05,1.23 0.05,1.85 0,18.98 -14.45,40.86 -40.86,40.86l0 -0.01c-7.8,0.01 -15.45,-2.22 -22.01,-6.44 1.13,0.14 2.27,0.21 3.42,0.21 6.46,0.01 12.74,-2.16 17.83,-6.16 -6.15,-0.11 -11.53,-4.12 -13.42,-9.97 2.16,0.42 4.37,0.33 6.49,-0.25 -6.7,-1.35 -11.52,-7.24 -11.52,-14.07l0 -0.18c1.99,1.11 4.23,1.72 6.52,1.79 -6.31,-4.21 -8.26,-12.61 -4.45,-19.17 7.29,8.97 18.05,14.42 29.59,15 -1.15,-4.98 0.43,-10.21 4.16,-13.72 5.78,-5.43 14.88,-5.16 20.32,0.63 3.21,-0.64 6.29,-1.82 9.11,-3.49 -1.07,3.32 -3.31,6.15 -6.31,7.94 2.85,-0.34 5.63,-1.1 8.25,-2.26 -1.93,2.89 -4.36,5.41 -7.17,7.44l0 0z"/>
 </g>
</svg>
