<?xml version="1.0" encoding="UTF-8"?>
<!DOCTYPE svg PUBLIC "-//W3C//DTD SVG 1.1//EN" "http://www.w3.org/Graphics/SVG/1.1/DTD/svg11.dtd">
<!-- Creator: CorelDRAW 2021 (64-Bit) -->
<svg xmlns="http://www.w3.org/2000/svg" xml:space="preserve" width="74px" height="58px" version="1.1" style="shape-rendering:geometricPrecision; text-rendering:geometricPrecision; image-rendering:optimizeQuality; fill-rule:evenodd; clip-rule:evenodd"
viewBox="0 0 74 58"
 xmlns:xlink="http://www.w3.org/1999/xlink"
 xmlns:xodm="http://www.corel.com/coreldraw/odm/2003">
 <defs>
  <style type="text/css">
   <![CDATA[
    .fil0 {fill:#1D9BF0;fill-rule:nonzero}
   ]]>
  </style>
 </defs>
 <g id="Layer_x0020_1">
  <metadata id="CorelCorpID_0Corel-Layer"/>
  <path class="fil0" d="M64.64 14.91c0.04,0.62 0.04,1.24 0.04,1.86 0,18.98 -14.44,40.87 -40.86,40.87l0 -0.02c-7.8,0.02 -15.45,-2.22 -22.02,-6.43 1.14,0.13 2.28,0.2 3.42,0.2 6.47,0.01 12.75,-2.16 17.84,-6.16 -6.15,-0.11 -11.53,-4.12 -13.42,-9.97 2.16,0.41 4.37,0.33 6.49,-0.25 -6.7,-1.35 -11.52,-7.24 -11.52,-14.08l0 -0.18c1.99,1.12 4.23,1.73 6.52,1.8 -6.32,-4.22 -8.26,-12.61 -4.45,-19.18 7.29,8.98 18.05,14.43 29.6,15.01 -1.16,-4.99 0.42,-10.22 4.15,-13.72 5.79,-5.44 14.89,-5.16 20.32,0.62 3.22,-0.63 6.3,-1.82 9.12,-3.49 -1.07,3.33 -3.31,6.15 -6.31,7.95 2.85,-0.34 5.63,-1.1 8.25,-2.27 -1.93,2.89 -4.36,5.41 -7.17,7.44l0 0z"/>
 </g>
</svg>
